<svg xml:space="preserve" style="max-height: 500px" viewBox="115.5068316831683 177.39344 581.1065346534654 217.87248" y="0px" x="0px" xmlns:xlink="http://www.w3.org/1999/xlink" xmlns="http://www.w3.org/2000/svg" id="Layer_1" version="1.1" width="581.1065346534654" height="217.87248">
<style type="text/css">
	.st0{fill:#EF3E23;}
	.st1{font-family:'Poppins-Bold';}
	.st2{font-size:95.6365px;}
	.st3{fill:#1A1312;}
	.st4{fill:#FFFFFF;}
</style>
<g>
	<path d="M286.7,380.23H167.58c-21.01,0-38.03-17.03-38.03-38.03V223.08c0-21.01,17.03-38.04,38.04-38.04H286.7&#10;&#9;&#9;c21.01,0,38.04,17.03,38.04,38.04v119.12C324.73,363.2,307.71,380.23,286.7,380.23z" class="st0"/>
	<g>
		<text transform="matrix(1 0 0 1 361.6455 277.3108)"><tspan class="st0 st1 st2" y="0" x="0">Search</tspan><tspan class="st3 st1 st2" y="74.97" x="0">Query</tspan></text>
	</g>
	<g>
		<path d="M172.81,310.28c-1.33,5.74-2.67,11.48-3.98,17.23c-1.11,4.86-2.13,9.74-3.29,14.59&#10;&#9;&#9;&#9;c-0.26,1.09-0.01,1.59,0.87,2.23c3.83,2.77,5.19,7.39,3.57,11.7c-1.59,4.24-5.7,6.75-10.47,6.4c-4.1-0.3-7.76-3.61-8.75-7.92&#10;&#9;&#9;&#9;c-1.23-5.32,2.6-11.06,8.01-11.84c1.19-0.17,1.57-0.56,1.83-1.75c2.42-10.95,4.93-21.88,7.43-32.82c0.23-1.01,0.26-1.69-0.8-2.44&#10;&#9;&#9;&#9;c-3.83-2.73-5.17-7.53-3.49-11.74c1.72-4.31,5.83-6.82,10.54-6.18c1.67,0.23,2.5-0.18,3.42-1.59&#10;&#9;&#9;&#9;c5.53-8.48,11.17-16.88,16.82-25.28c0.65-0.97,0.88-1.62,0.13-2.75c-2.38-3.59-2.28-7.89,0.23-11.27c2.6-3.5,6.13-4.82,10.41-3.86&#10;&#9;&#9;&#9;c1.03,0.23,1.65,0.06,2.31-0.84c4.19-5.81,8.41-11.6,12.71-17.34c0.71-0.95,0.55-1.5-0.05-2.37c-3.68-5.3-2.9-12.26,1.78-16.45&#10;&#9;&#9;&#9;c4.8-4.3,11.95-4.34,16.73-0.09c4.8,4.28,5.61,11.2,1.85,16.59c-0.64,0.92-0.65,1.46,0.02,2.37c4.24,5.69,8.44,11.42,12.58,17.19&#10;&#9;&#9;&#9;c0.68,0.95,1.32,1.19,2.45,0.93c3.95-0.92,7.34,0.22,9.91,3.29c2.62,3.15,3.08,6.77,1.4,10.53c-0.44,0.98-0.28,1.51,0.39,2.21&#10;&#9;&#9;&#9;c7.66,7.88,15.26,15.81,22.99,23.62c1.32,1.34,1.2,1.98-0.1,3.13c-2.14,1.9-2.09,2.01-4.06-0.01&#10;&#9;&#9;&#9;c-7.43-7.64-14.84-15.3-22.25-22.95c-0.67-0.69-1.17-1.38-2.47-0.84c-1.22,0.5-1.47,1.16-1.54,2.3c-0.43,7.41-0.9,14.83-1.4,22.23&#10;&#9;&#9;&#9;c-0.07,1.04,0.14,1.56,1.17,2.08c6.36,3.2,7.66,10.86,2.74,16.04c-0.76,0.8-0.88,1.38-0.46,2.39c4.7,11.4,9.35,22.81,14,34.23&#10;&#9;&#9;&#9;c0.36,0.88,0.72,1.23,1.84,1.24c5.06,0.05,9.29,3.66,9.88,8.21c0.72,5.55-2.11,9.95-7.36,11.45c-4.08,1.17-8.69-0.64-10.96-4.29&#10;&#9;&#9;&#9;c-2.44-3.93-2.05-8.92,1.15-12.18c1.01-1.03,1.08-1.8,0.56-3.06c-4.63-11.14-9.2-22.31-13.73-33.49&#10;&#9;&#9;&#9;c-0.46-1.14-0.95-1.54-2.23-1.56c-4.79-0.08-8.82-3.56-9.6-8.08c-0.86-4.98,1.73-9.54,6.49-11.3c0.87-0.32,1.39-0.58,1.45-1.69&#10;&#9;&#9;&#9;c0.42-7.61,0.92-15.22,1.46-22.82c0.07-1.03-0.26-1.44-1.18-1.88c-5.61-2.67-7.56-8.95-4.39-14.27c0.6-1.01,0.44-1.58-0.18-2.4&#10;&#9;&#9;&#9;c-4.23-5.7-8.43-11.43-12.6-17.17c-0.62-0.86-1.14-1.2-2.26-0.8c-2.55,0.92-5.19,0.91-7.74,0.01c-1.1-0.39-1.63-0.1-2.26,0.77&#10;&#9;&#9;&#9;c-4.16,5.75-8.37,11.47-12.6,17.18c-0.61,0.82-0.8,1.39-0.19,2.4c2.52,4.19,1.96,8.68-1.49,12.26c-0.73,0.75-0.74,1.28-0.33,2.17&#10;&#9;&#9;&#9;c3.69,8.12,7.35,16.26,10.97,24.42c0.42,0.95,0.86,1.35,2.01,1.32c4.5-0.12,8.25,2.44,9.68,6.39c1.49,4.12,0.33,8.58-3.2,11.35&#10;&#9;&#9;&#9;c-1.17,0.92-1.22,1.67-0.88,2.96c1.52,5.7,2.88,11.45,4.39,17.16c0.31,1.17-0.1,1.46-1.11,1.71c-3.46,0.87-3.46,0.9-4.35-2.51&#10;&#9;&#9;&#9;c-1.33-5.14-2.65-10.28-4.29-15.5c-0.51,2.08-1.05,4.16-1.53,6.25c-1.99,8.77-3.94,17.54-5.94,26.31c-0.25,1.11-0.22,1.81,0.9,2.6&#10;&#9;&#9;&#9;c3.93,2.78,5.19,7.71,3.31,12.1c-1.76,4.1-6.3,6.58-10.8,5.89c-4.48-0.69-8.01-4.53-8.44-9.17c-0.46-5.02,3.3-9.84,8.33-10.57&#10;&#9;&#9;&#9;c0.97-0.14,1.4-0.4,1.64-1.46c2.48-11.21,5.04-22.4,7.62-33.59c0.2-0.86-0.06-1.25-0.72-1.76c-5.29-4.06-5.91-10.36-1.45-15.28&#10;&#9;&#9;&#9;c0.71-0.79,0.59-1.29,0.25-2.03c-3.69-8.2-7.41-16.38-11.04-24.61c-0.51-1.15-1.3-0.95-2.21-1.24c-2.79-0.9-3.9,0.59-5.21,2.62&#10;&#9;&#9;&#9;c-5.3,8.16-10.73,16.23-16.18,24.28c-0.72,1.07-0.58,1.73,0.06,2.73c2.77,4.33,1.88,9.98-2.2,13.05c-1.3,0.98-1.26,1.86-0.94,3.11&#10;&#9;&#9;&#9;c1.47,5.72,2.86,11.45,4.4,17.15c0.29,1.07,0.08,1.35-0.89,1.6c-3.74,0.99-3.77,1.03-4.67-2.61c-1.05-4.23-1.96-8.51-3.41-12.63&#10;&#9;&#9;&#9;c-0.21-0.59,0.01-1.17-0.26-1.7C173.3,309.99,173.06,309.96,172.81,310.28z" class="st4"/>
		<path d="M241.07,328.55c-0.02,5.52-4.57,10.05-10.06,10c-5.47-0.04-10.11-4.7-10.05-10.1c0.06-5.47,4.65-10,10.15-10&#10;&#9;&#9;&#9;C236.61,318.45,241.08,322.99,241.07,328.55z" class="st4"/>
		<path d="M181.49,341.55c-5.49-0.02-9.98-4.57-9.96-10.11c0.02-5.54,4.53-10.01,10.07-9.99&#10;&#9;&#9;&#9;c5.47,0.02,10.08,4.67,10.02,10.1C191.56,337.05,186.98,341.57,181.49,341.55z" class="st4"/>
		<path d="M303.75,288.95c0,5.61-4.38,10.03-9.96,10.04c-5.55,0.01-10.03-4.44-10.06-9.99c-0.03-5.54,4.4-9.97,10.01-10&#10;&#9;&#9;&#9;C299.36,278.97,303.75,283.33,303.75,288.95z" class="st4"/>
	</g>
</g>
</svg>
